<svg width="196" height="224" viewBox="0 0 196 224" fill="none" xmlns="http://www.w3.org/2000/svg">
<g clip-path="url(#clip0_1_12)">
<path d="M195.972 0.888916L178.121 200.866L97.8801 223.111L17.86 200.897L0.027832 0.888916H195.972Z" fill="#E43C13"/>
<path d="M162.839 188.132L178.094 17.2424H98V206.108L162.839 188.132Z" fill="#FD9075"/>
<path d="M40.9077 91.4229L43.1062 115.953H98V91.4229H40.9077Z" fill="#ECE9E1"/>
<path d="M98 41.7727H97.9152H36.49L38.7199 66.3031H98V41.7727Z" fill="#ECE9E1"/>
<path d="M98 180.651V155.13L97.8925 155.158L70.573 147.781L68.8266 128.218H55.5515H44.2022L47.6388 166.733L97.8871 180.683L98 180.651Z" fill="#ECE9E1"/>
<path d="M128.121 115.952L125.274 147.766L97.9152 155.15V180.671L148.203 166.734L148.572 162.589L154.337 98.0094L154.935 91.4224L159.364 41.7727H97.9152V66.3031H132.481L130.249 91.4224H97.9152V115.952H128.121Z" fill="white"/>
</g>
<defs>
<clipPath id="clip0_1_12">
<rect width="196" height="224" fill="white"/>
</clipPath>
</defs>
</svg>
