<svg width="196" height="224" viewBox="0 0 196 224" fill="none" xmlns="http://www.w3.org/2000/svg">
<g clip-path="url(#clip0_1_32)">
<path d="M17.8403 200.965L0.0149536 0.888916H195.985L178.16 200.857L97.8381 223.111" fill="#E43C13"/>
<path d="M97.9994 206.098V17.3115H178.105L162.819 188.002" fill="#FD9075"/>
<path d="M36.4218 41.7798H98.0001V66.3031H63.3218L65.5904 91.4206H98.0001V115.89H43.1197L36.4218 41.7798ZM44.2001 128.206H68.8314L70.5599 147.813L98.0001 155.16V180.763L47.6571 166.719" fill="#ECE9E1"/>
<path d="M159.361 41.7798H97.8909V66.3031H157.093L159.361 41.7798ZM154.878 91.4206H97.8909V115.944H128.14L125.277 147.813L97.8909 155.16V180.655L148.126 166.719" fill="white"/>
</g>
<defs>
<clipPath id="clip0_1_32">
<rect width="196" height="224" fill="white"/>
</clipPath>
</defs>
</svg>
