<svg width="400" height="390" viewBox="0 0 400 390" fill="none" xmlns="http://www.w3.org/2000/svg">
<path d="M164.167 135.333C158 132.833 151.333 131.833 144.5 132C140.167 132 136.333 132 133.167 132.167C129.833 132 127.5 132.167 126.333 132.333V188.333C128.667 188.5 130.833 188.667 132.833 188.667H141.667C148.167 188.667 154.667 187.667 160.833 185.667C166.167 184.167 170.833 181 174.5 176.833C178 172.667 179.667 167 179.667 159.667C179.833 154.5 178.5 149.333 175.833 144.833C173 140.5 169 137.167 164.167 135.333ZM329.167 0H70.8333C31.6667 0 0 31.6667 0 70.8333V319.15C0 358.317 31.6667 389.983 70.8333 389.983H329.167C368.333 389.983 400 358.317 400 319.15V70.8333C400 31.6667 368.333 0 329.167 0ZM205.983 194.167C199.333 203.5 190 210.5 179.167 214.5C167.833 218.667 155.333 220.167 141.667 220.167C137.667 220.167 135 220.167 133.333 220C131.667 219.833 129.333 219.833 126.167 219.833V273.317C126.333 274.483 125.5 275.5 124.333 275.667H92C90.6667 275.667 90 274.983 90 273.483V102C90 100.833 90.5 100.167 91.6667 100.167C94.5 100.167 97.1667 100.167 101 100C105 99.8333 109.167 99.8333 113.667 99.6667C118.167 99.5 123 99.5 128.167 99.3333C133.333 99.1667 138.333 99.1667 143.333 99.1667C157 99.1667 168.333 100.833 177.667 104.333C186 107.167 193.667 111.833 200 118C205.333 123.333 209.5 129.833 212.167 137C214.65 144 215.983 151.167 215.983 158.667C216 173 212.667 184.833 205.983 194.167ZM324.167 259C319.5 265.667 312.983 270.817 305.5 273.85C297.333 277.333 287.333 279.15 275.317 279.15C267.667 279.15 260.15 278.5 252.667 277C246.833 275.983 241 274.167 235.667 271.667C234.5 271.017 233.65 269.85 233.817 268.517V239.517C233.817 239.033 234 238.35 234.5 238.017C234.983 237.683 235.5 237.85 236 238.183C242.5 242.017 249.333 244.7 256.667 246.35C262.983 248.017 269.65 248.85 276.333 248.85C282.667 248.85 287.167 248 290.167 246.5C292.833 245.333 294.667 242.5 294.667 239.5C294.667 237.15 293.333 235 290.667 232.833C288 230.683 282.517 228.183 274.35 224.983C265.85 221.983 258.033 217.983 250.683 213C245.517 209.317 241.2 204.5 238 198.833C235.35 193.5 234.017 187.667 234.183 181.817C234.183 174.65 236.183 167.817 239.867 161.65C244.033 154.983 250.183 149.65 257.35 146.317C265.167 142.333 275 140.5 286.833 140.5C293.667 140.5 300.667 141 307.5 142C312.5 142.667 317.333 144 321.833 145.833C322.483 146 323.167 146.667 323.5 147.333C323.667 148 323.833 148.667 323.833 149.333V176.5C323.833 177.167 323.5 177.833 323 178.167C321.5 178.5 320.667 178.5 320 178.167C315 175.5 309.667 173.667 304 172.5C297.833 171.167 291.667 170.333 285.333 170.333C282 170.167 278.5 170.667 275.317 171.5C273.167 172 271.317 173.167 270.15 174.833C269.317 176.167 268.817 177.833 268.817 179.333C268.817 180.833 269.483 182.333 270.5 183.667C272 185.5 273.983 187 276.167 188.167C279.983 190.167 284 192 287.983 193.667C297 196.667 305.667 200.833 313.667 205.833C319.167 209.317 323.667 214 326.817 219.667C329.483 224.967 330.817 230.833 330.65 236.817C330.833 244.667 328.5 252.483 324.167 259Z" fill="#E43C13"/>
</svg>
