<svg width="319" height="174" viewBox="0 0 319 174" fill="none" xmlns="http://www.w3.org/2000/svg">
<path d="M98.3644 116.112C82.5801 116.112 69.7144 103.152 69.7144 87.2651C69.7144 71.3779 82.5801 58.4184 98.3644 58.4184C114.149 58.4184 127.014 71.3779 127.014 87.2651C127.014 103.141 114.137 116.112 98.3644 116.112ZM29.5725 173.385C13.8109 173.351 0.979112 160.335 1.02453 144.448C1.03354 136.828 4.06495 129.522 9.45445 124.132C14.8439 118.742 22.152 115.707 29.7768 115.692C45.5497 115.726 58.3815 128.742 58.3247 144.641C58.3097 152.258 55.276 159.558 49.8874 164.946C44.4989 170.332 37.1944 173.368 29.5725 173.385ZM290.319 173.385C282.695 173.401 275.376 170.396 269.963 165.029C264.55 159.663 261.486 152.373 261.441 144.754C261.361 128.844 274.137 115.783 289.887 115.703C297.508 115.691 304.822 118.695 310.232 124.059C315.641 129.422 318.705 136.708 318.753 144.323C318.844 160.221 306.057 173.294 290.319 173.385Z" fill="#E43C13"/>
<path d="M236.618 60.0977C228.828 57.6692 220.505 56.6592 212.34 55.7741C199.713 54.4123 194.683 49.4874 192.548 36.8456C191.344 29.7872 189.663 22.5471 186.609 16.1355C180.783 3.93638 167.133 -1.53337 153.428 1.58734C141.844 4.23143 132.226 15.7497 131.692 27.5743C131.08 41.0558 138.802 52.574 152.065 56.5458C158.368 58.4409 165.067 59.3828 171.642 59.8707C183.712 60.7445 187.744 64.3419 191.003 69.8343C193.07 73.3068 195.056 76.7226 195.056 87.0493C195.056 97.3873 193.047 100.803 191.003 104.264C187.744 109.757 183.712 113.343 171.642 114.239C165.055 114.716 158.356 115.669 152.065 117.564C138.802 121.547 131.08 133.043 131.692 146.547C132.226 158.36 141.856 169.879 153.428 172.523C167.133 175.655 180.783 170.173 186.609 157.974C189.674 151.574 191.344 144.322 192.548 137.264C194.693 124.623 199.725 119.709 212.34 118.336C220.517 117.451 228.828 116.429 236.618 114.001C248.44 110.313 255.548 99.2938 255.548 87.0493C255.548 74.8161 248.44 63.8085 236.618 60.0977Z" fill="#FD9075"/>
</svg>
