<svg width="139" height="104" viewBox="0 0 139 104" fill="none" xmlns="http://www.w3.org/2000/svg">
<g clip-path="url(#clip0_9_64)">
<path d="M119.614 59.776C114.768 59.8014 110.556 60.9665 107.029 62.6888C105.734 60.1306 104.44 57.851 104.212 56.1793C103.958 54.229 103.654 53.0386 103.958 50.7083C104.263 48.3781 105.633 45.06 105.608 44.8067C105.582 44.5534 105.303 43.363 102.512 43.3377C99.7208 43.3123 97.3102 43.8696 97.0311 44.6041C96.752 45.3386 96.2191 47.0103 95.8639 48.7327C95.3818 51.2656 90.2815 60.3079 87.3635 65.0444C86.4247 63.1954 85.6127 61.5744 85.4351 60.2826C85.1813 58.3323 84.8768 57.1418 85.1813 54.8116C85.4858 52.4813 86.856 49.1633 86.8307 48.91C86.8053 48.6567 86.5262 47.4662 83.735 47.4409C80.9438 47.4156 78.5333 47.9728 78.2542 48.7074C77.9751 49.4419 77.6706 51.1642 77.087 52.8359C76.5033 54.5076 69.7284 69.6036 67.9522 73.5042C67.0388 75.5052 66.2522 77.1009 65.6939 78.1901C65.6939 78.1901 65.6686 78.266 65.5924 78.3927C65.1103 79.3298 64.8312 79.8364 64.8312 79.8364C64.8312 79.8364 64.8312 79.8364 64.8312 79.8618C64.4506 80.5456 64.0446 81.1789 63.8416 81.1789C63.6894 81.1789 63.4102 79.3552 63.8924 76.873C64.9073 71.6299 67.3179 63.474 67.2925 63.1954C67.2925 63.0434 67.7492 61.625 65.7193 60.8905C63.7401 60.156 63.0296 61.3717 62.852 61.3717C62.6744 61.3717 62.5475 61.8023 62.5475 61.8023C62.5475 61.8023 64.7551 52.6333 58.3354 52.6333C54.3263 52.6333 48.7947 57.0152 46.0543 60.9665C44.3288 61.9036 40.6496 63.9046 36.7166 66.0576C35.2195 66.8934 33.6717 67.7293 32.2253 68.5145C32.1238 68.4131 32.0223 68.2865 31.9208 68.1852C24.1563 59.9027 9.79451 54.0517 10.4035 42.9324C10.6319 38.8798 12.0274 28.2417 37.9853 15.324C59.3504 4.81256 76.3511 7.72537 79.2945 14.1842C83.5066 23.4039 70.1852 40.5262 48.1096 43.0084C39.6853 43.9455 35.2702 40.7035 34.1538 39.4877C32.9866 38.2212 32.8089 38.1452 32.3776 38.3985C31.6671 38.7785 32.1238 39.9183 32.3776 40.5768C33.0373 42.2992 35.7523 45.3386 40.3451 46.833C44.405 48.1501 54.2755 48.8847 66.2268 44.2748C79.599 39.1077 90.0532 24.7463 86.9829 12.7151C83.9126 0.506664 63.6132 -3.52061 44.405 3.29283C32.9866 7.34544 20.6039 13.7283 11.6976 22.0361C1.11653 31.9144 -0.558172 40.5008 0.126932 44.0975C2.58823 56.8632 20.2233 65.1711 27.2774 71.326C26.9221 71.5286 26.5922 71.7059 26.3131 71.8579C22.7861 73.6055 9.33778 80.6216 5.98838 88.043C2.18224 96.4521 6.59736 102.48 9.5154 103.291C18.574 105.798 27.8863 101.29 32.8851 93.8432C37.8838 86.3966 37.2748 76.721 34.9657 72.2884C34.9404 72.2378 34.915 72.1871 34.8642 72.1365C35.7777 71.6046 36.7166 71.0473 37.63 70.5154C39.4316 69.4516 41.2078 68.4638 42.7303 67.6533C41.8675 70.0089 41.2332 72.8204 40.9287 76.873C40.5481 81.6348 42.5019 87.815 45.0647 90.2466C46.2065 91.3104 47.5514 91.3357 48.4141 91.3357C51.4082 91.3357 52.7531 88.8535 54.2502 85.9153C56.0771 82.3186 57.7264 78.1394 57.7264 78.1394C57.7264 78.1394 55.6711 89.436 61.2534 89.436C63.2834 89.436 65.3387 86.8018 66.2522 85.4594C66.2522 85.4847 66.2522 85.4847 66.2522 85.4847C66.2522 85.4847 66.3029 85.4088 66.4044 85.2315C66.6074 84.9022 66.7343 84.6996 66.7343 84.6996C66.7343 84.6996 66.7343 84.6742 66.7343 84.6489C67.5462 83.2305 69.3732 80.0137 72.0882 74.6693C75.5899 67.7799 78.9647 59.1681 78.9647 59.1681C78.9647 59.1681 79.2691 61.2704 80.3095 64.7658C80.9185 66.8174 82.1872 69.0717 83.2021 71.25C82.3902 72.3898 81.8827 73.023 81.8827 73.023C81.8827 73.023 81.8827 73.023 81.9081 73.0483C81.2483 73.9095 80.5378 74.8467 79.7512 75.7585C76.9855 79.0512 73.6868 82.8252 73.2301 83.9144C72.6972 85.2061 72.8241 86.1433 73.8391 86.9032C74.5749 87.4604 75.8944 87.5364 77.2392 87.4604C79.7259 87.2831 81.4767 86.6752 82.3394 86.2953C83.6842 85.814 85.2575 85.0795 86.7292 83.9903C89.4442 81.9894 91.0935 79.1272 90.9413 75.3532C90.8652 73.2763 90.1801 71.1993 89.3427 69.249C89.5965 68.8944 89.8248 68.5398 90.0786 68.1852C94.3668 61.929 97.6908 55.0649 97.6908 55.0649C97.6908 55.0649 97.9953 57.1672 99.0357 60.6625C99.5431 62.4356 100.583 64.3605 101.497 66.2349C97.4625 69.5023 94.9758 73.3016 94.0877 75.7838C92.4891 80.3937 93.7325 82.4706 96.0923 82.9519C97.158 83.1798 98.6804 82.6732 99.7969 82.192C101.218 81.7361 102.893 80.9509 104.491 79.7858C107.206 77.7848 109.82 74.9986 109.667 71.2246C109.591 69.5023 109.135 67.8053 108.5 66.1589C111.926 64.7405 116.341 63.9553 121.974 64.6138C134.052 66.0322 136.437 73.5549 135.981 76.721C135.524 79.8871 132.986 81.6094 132.149 82.1413C131.312 82.6732 131.033 82.8506 131.109 83.2305C131.21 83.7877 131.616 83.7624 132.327 83.6611C133.316 83.4838 138.67 81.1029 138.899 75.2772C139.279 67.8306 132.174 59.7 119.614 59.776ZM26.44 91.1331C22.4309 95.4896 16.8485 97.136 14.438 95.7429C11.8498 94.2485 12.8648 87.815 17.7874 83.2052C20.7816 80.3937 24.6384 77.7848 27.2012 76.1891C27.7848 75.8345 28.6476 75.3279 29.6879 74.6947C29.8655 74.5934 29.967 74.5427 29.967 74.5427C30.17 74.4161 30.373 74.2894 30.576 74.1628C32.3776 80.7483 30.6521 86.5486 26.44 91.1331ZM55.6204 71.326C54.2248 74.72 51.3067 83.4078 49.5305 82.9265C48.0081 82.5213 47.0692 75.9358 49.2261 69.4263C50.3171 66.1589 52.6262 62.2583 53.971 60.7385C56.1532 58.307 58.5638 57.4964 59.1474 58.4843C59.8832 59.776 56.4831 69.1983 55.6204 71.326ZM79.7005 82.8252C79.1169 83.1292 78.5587 83.3318 78.3049 83.1798C78.1273 83.0785 78.5587 82.6732 78.5587 82.6732C78.5587 82.6732 81.5782 79.4312 82.7708 77.9621C83.4559 77.1009 84.2679 76.0878 85.1306 74.948C85.1306 75.0493 85.1306 75.1759 85.1306 75.2772C85.1306 79.1525 81.3752 81.7614 79.7005 82.8252ZM98.2744 78.5953C97.8431 78.2914 97.9192 77.2782 99.3655 74.1121C99.9238 72.871 101.243 70.7941 103.502 68.7931C103.755 69.6036 103.933 70.3888 103.908 71.1233C103.882 76.0118 100.38 77.8354 98.2744 78.5953Z" fill="#E43C13"/>
</g>
<defs>
<clipPath id="clip0_9_64">
<rect width="139" height="104" fill="white"/>
</clipPath>
</defs>
</svg>
