<svg width="189" height="45" viewBox="0 0 189 45" fill="none" xmlns="http://www.w3.org/2000/svg">
<path d="M11.2852 44.3906C7.36263 44.3906 4.5306 43.4141 2.78906 41.4609C1.0638 39.5078 0.201172 36.3991 0.201172 32.1348V27.9355H8.69727V33.3066C8.69727 34.2995 8.84375 35.0807 9.13672 35.6504C9.44596 36.2038 9.97493 36.4805 10.7236 36.4805C11.5049 36.4805 12.042 36.2526 12.335 35.7969C12.6442 35.3411 12.7988 34.5924 12.7988 33.5508C12.7988 32.2324 12.6686 31.1338 12.4082 30.2549C12.1478 29.3597 11.6921 28.5133 11.041 27.7158C10.4062 26.902 9.51921 25.958 8.37988 24.8838L4.52246 21.2217C1.6416 18.5036 0.201172 15.3949 0.201172 11.8955C0.201172 8.2334 1.04753 5.44206 2.74023 3.52148C4.44922 1.60091 6.91504 0.640625 10.1377 0.640625C14.0765 0.640625 16.8678 1.69043 18.5117 3.79004C20.1719 5.88965 21.002 9.07975 21.002 13.3604H12.2617V10.4062C12.2617 9.82031 12.0908 9.36458 11.749 9.03906C11.4235 8.71354 10.9759 8.55078 10.4062 8.55078C9.72266 8.55078 9.2181 8.74609 8.89258 9.13672C8.58333 9.51107 8.42871 9.99935 8.42871 10.6016C8.42871 11.2038 8.59147 11.8548 8.91699 12.5547C9.24251 13.2546 9.88542 14.0602 10.8457 14.9717L15.8018 19.7324C16.7946 20.6764 17.7061 21.6774 18.5361 22.7354C19.3662 23.777 20.0335 24.9977 20.5381 26.3975C21.0426 27.7809 21.2949 29.4736 21.2949 31.4756C21.2949 35.512 20.5462 38.6777 19.0488 40.9727C17.5677 43.2513 14.9798 44.3906 11.2852 44.3906ZM34.1123 44.3906C30.5316 44.3906 27.8949 43.3896 26.2021 41.3877C24.5094 39.3695 23.6631 36.4072 23.6631 32.501V1.03125H32.0127V32.1592C32.0127 32.8753 32.0534 33.5671 32.1348 34.2344C32.2161 34.8854 32.4033 35.4225 32.6963 35.8457C32.9893 36.2689 33.4613 36.4805 34.1123 36.4805C34.7796 36.4805 35.2598 36.277 35.5527 35.8701C35.8457 35.4469 36.0247 34.9017 36.0898 34.2344C36.1712 33.5671 36.2119 32.8753 36.2119 32.1592V1.03125H44.5615V32.501C44.5615 36.4072 43.7152 39.3695 42.0225 41.3877C40.3298 43.3896 37.693 44.3906 34.1123 44.3906ZM47.8574 44V1.03125H56.6953L60.6504 21.6123V1.03125H68.9512V44H60.5527L56.2559 22.5156V44H47.8574ZM81.6221 44.3906C75.486 44.3906 72.418 39.9961 72.418 31.207V12.6768C72.418 4.65267 75.9336 0.640625 82.9648 0.640625C85.862 0.640625 88.0837 1.22656 89.6299 2.39844C91.1761 3.55404 92.2422 5.24674 92.8281 7.47656C93.4141 9.70638 93.707 12.4245 93.707 15.6309H85.3086V11.8223C85.3086 10.8945 85.1784 10.1214 84.918 9.50293C84.6738 8.86816 84.153 8.55078 83.3555 8.55078C82.3626 8.55078 81.7035 8.88444 81.3779 9.55176C81.0687 10.2191 80.9141 10.9515 80.9141 11.749V32.5742C80.9141 33.7298 81.0605 34.6738 81.3535 35.4062C81.6628 36.1224 82.2568 36.4805 83.1357 36.4805C84.0472 36.4805 84.6494 36.1224 84.9424 35.4062C85.2516 34.6738 85.4062 33.7135 85.4062 32.5254V26.3975H83.1113V18.9756H93.6094V44H90.167L88.7021 40.3867C87.2048 43.056 84.8447 44.3906 81.6221 44.3906ZM113.946 44V29.8643L107.086 1.03125H115.606L117.999 15.582L120.392 1.03125H128.888L122.052 29.8643V44H113.946ZM140.997 44.3906C137.416 44.3906 134.78 43.3896 133.087 41.3877C131.394 39.3695 130.548 36.4072 130.548 32.501V1.03125H138.897V32.1592C138.897 32.8753 138.938 33.5671 139.02 34.2344C139.101 34.8854 139.288 35.4225 139.581 35.8457C139.874 36.2689 140.346 36.4805 140.997 36.4805C141.664 36.4805 142.145 36.277 142.438 35.8701C142.73 35.4469 142.91 34.9017 142.975 34.2344C143.056 33.5671 143.097 32.8753 143.097 32.1592V1.03125H151.446V32.501C151.446 36.4072 150.6 39.3695 148.907 41.3877C147.215 43.3896 144.578 44.3906 140.997 44.3906ZM165.289 44L169.439 1.03125H184.015L188.092 44H179.962L179.352 37.0664H174.176L173.639 44H165.289ZM174.786 30.2061H178.692L176.812 8.35547H176.422L174.786 30.2061Z" fill="#E43C13"/>
</svg>
