<svg width="155" height="37" viewBox="0 0 155 37" fill="none" xmlns="http://www.w3.org/2000/svg">
<path d="M8.46563 36.5C5.79896 36.5 3.78229 35.75 2.41563 34.25C1.04896 32.7167 0.365625 30.5333 0.365625 27.7V25.7H5.56563V28.1C5.56563 30.3667 6.51563 31.5 8.41563 31.5C9.34896 31.5 10.049 31.2333 10.5156 30.7C11.0156 30.1333 11.2656 29.2333 11.2656 28C11.2656 26.5333 10.9323 25.25 10.2656 24.15C9.59896 23.0167 8.36563 21.6667 6.56563 20.1C4.29896 18.1 2.71563 16.3 1.81563 14.7C0.915625 13.0667 0.465625 11.2333 0.465625 9.2C0.465625 6.43333 1.16563 4.3 2.56562 2.8C3.96563 1.26666 5.99896 0.499998 8.66563 0.499998C11.299 0.499998 13.2823 1.26666 14.6156 2.8C15.9823 4.3 16.6656 6.46667 16.6656 9.3V10.75H11.4656V8.95C11.4656 7.75 11.2323 6.88333 10.7656 6.35C10.299 5.78333 9.61563 5.5 8.71563 5.5C6.88229 5.5 5.96563 6.61667 5.96563 8.85C5.96563 10.1167 6.29896 11.3 6.96563 12.4C7.66563 13.5 8.91563 14.8333 10.7156 16.4C13.0156 18.4 14.599 20.2167 15.4656 21.85C16.3323 23.4833 16.7656 25.4 16.7656 27.6C16.7656 30.4667 16.049 32.6667 14.6156 34.2C13.2156 35.7333 11.1656 36.5 8.46563 36.5ZM27.9191 36.5C25.2525 36.5 23.2191 35.75 21.8191 34.25C20.4191 32.7167 19.7191 30.5333 19.7191 27.7V0.999998H25.2191V28.1C25.2191 29.3 25.4525 30.1667 25.9191 30.7C26.4191 31.2333 27.1191 31.5 28.0191 31.5C28.9191 31.5 29.6025 31.2333 30.0691 30.7C30.5691 30.1667 30.8191 29.3 30.8191 28.1V0.999998H36.1191V27.7C36.1191 30.5333 35.4191 32.7167 34.0191 34.25C32.6191 35.75 30.5858 36.5 27.9191 36.5ZM40.0363 0.999998H46.9363L52.2863 21.95H52.3863V0.999998H57.2863V36H51.6363L45.0363 10.45H44.9363V36H40.0363V0.999998ZM69.1742 36.5C66.5076 36.5 64.4742 35.75 63.0742 34.25C61.6742 32.7167 60.9742 30.5333 60.9742 27.7V9.3C60.9742 6.46667 61.6742 4.3 63.0742 2.8C64.4742 1.26666 66.5076 0.499998 69.1742 0.499998C71.8409 0.499998 73.8742 1.26666 75.2742 2.8C76.6742 4.3 77.3742 6.46667 77.3742 9.3V12.3H72.1742V8.95C72.1742 6.65 71.2242 5.5 69.3242 5.5C67.4242 5.5 66.4742 6.65 66.4742 8.95V28.1C66.4742 30.3667 67.4242 31.5 69.3242 31.5C71.2242 31.5 72.1742 30.3667 72.1742 28.1V21.25H69.4242V16.25H77.3742V27.7C77.3742 30.5333 76.6742 32.7167 75.2742 34.25C73.8742 35.75 71.8409 36.5 69.1742 36.5ZM93.9633 21.1L87.3133 0.999998H93.1633L96.9133 13.85H97.0133L100.763 0.999998H106.113L99.4633 21.1V36H93.9633V21.1ZM116.591 36.5C113.924 36.5 111.891 35.75 110.491 34.25C109.091 32.7167 108.391 30.5333 108.391 27.7V0.999998H113.891V28.1C113.891 29.3 114.124 30.1667 114.591 30.7C115.091 31.2333 115.791 31.5 116.691 31.5C117.591 31.5 118.274 31.2333 118.741 30.7C119.241 30.1667 119.491 29.3 119.491 28.1V0.999998H124.791V27.7C124.791 30.5333 124.091 32.7167 122.691 34.25C121.291 35.75 119.258 36.5 116.591 36.5ZM140.966 0.999998H148.416L154.116 36H148.616L147.616 29.05V29.15H141.366L140.366 36H135.266L140.966 0.999998ZM146.966 24.4L144.516 7.1H144.416L142.016 24.4H146.966Z" fill="#E43C13"/>
</svg>
