<svg width="155" height="37" viewBox="0 0 155 37" fill="none" xmlns="http://www.w3.org/2000/svg">
<g clip-path="url(#clip0_13_2)">
<path d="M8.46573 36.5C5.79906 36.5 3.78239 35.75 2.41573 34.25C1.04906 32.7167 0.365723 30.5333 0.365723 27.7V25.7H5.56573V28.1C5.56573 30.3667 6.51573 31.5 8.41573 31.5C9.34906 31.5 10.0491 31.2333 10.5157 30.7C11.0157 30.1333 11.2657 29.2333 11.2657 28C11.2657 26.5333 10.9324 25.25 10.2657 24.15C9.59906 23.0167 8.36573 21.6667 6.56573 20.1C4.29906 18.1 2.71573 16.3 1.81573 14.7C0.915723 13.0667 0.465723 11.2333 0.465723 9.2C0.465723 6.43333 1.16573 4.3 2.56572 2.8C3.96573 1.26666 5.99906 0.5 8.66573 0.5C11.2991 0.5 13.2824 1.26666 14.6157 2.8C15.9824 4.3 16.6657 6.46667 16.6657 9.3V10.75H11.4657V8.95C11.4657 7.75 11.2324 6.88333 10.7657 6.35C10.2991 5.78333 9.61573 5.5 8.71573 5.5C6.88239 5.5 5.96573 6.61667 5.96573 8.85C5.96573 10.1167 6.29906 11.3 6.96573 12.4C7.66573 13.5 8.91573 14.8333 10.7157 16.4C13.0157 18.4 14.5991 20.2167 15.4657 21.85C16.3324 23.4833 16.7657 25.4 16.7657 27.6C16.7657 30.4667 16.0491 32.6667 14.6157 34.2C13.2157 35.7333 11.1657 36.5 8.46573 36.5ZM27.9192 36.5C25.2526 36.5 23.2192 35.75 21.8192 34.25C20.4192 32.7167 19.7192 30.5333 19.7192 27.7V1H25.2192V28.1C25.2192 29.3 25.4526 30.1667 25.9192 30.7C26.4192 31.2333 27.1192 31.5 28.0192 31.5C28.9192 31.5 29.6026 31.2333 30.0692 30.7C30.5692 30.1667 30.8192 29.3 30.8192 28.1V1H36.1192V27.7C36.1192 30.5333 35.4192 32.7167 34.0192 34.25C32.6192 35.75 30.5859 36.5 27.9192 36.5ZM40.0364 1H46.9364L52.2864 21.95H52.3864V1H57.2864V36H51.6364L45.0364 10.45H44.9364V36H40.0364V1ZM69.1743 36.5C66.5077 36.5 64.4743 35.75 63.0743 34.25C61.6743 32.7167 60.9743 30.5333 60.9743 27.7V9.3C60.9743 6.46667 61.6743 4.3 63.0743 2.8C64.4743 1.26666 66.5077 0.5 69.1743 0.5C71.841 0.5 73.8743 1.26666 75.2743 2.8C76.6743 4.3 77.3743 6.46667 77.3743 9.3V12.3H72.1743V8.95C72.1743 6.65 71.2243 5.5 69.3243 5.5C67.4243 5.5 66.4743 6.65 66.4743 8.95V28.1C66.4743 30.3667 67.4243 31.5 69.3243 31.5C71.2243 31.5 72.1743 30.3667 72.1743 28.1V21.25H69.4243V16.25H77.3743V27.7C77.3743 30.5333 76.6743 32.7167 75.2743 34.25C73.8743 35.75 71.841 36.5 69.1743 36.5ZM93.9634 21.1L87.3134 1H93.1634L96.9134 13.85H97.0134L100.763 1H106.113L99.4634 21.1V36H93.9634V21.1ZM116.591 36.5C113.924 36.5 111.891 35.75 110.491 34.25C109.091 32.7167 108.391 30.5333 108.391 27.7V1H113.891V28.1C113.891 29.3 114.124 30.1667 114.591 30.7C115.091 31.2333 115.791 31.5 116.691 31.5C117.591 31.5 118.274 31.2333 118.741 30.7C119.241 30.1667 119.491 29.3 119.491 28.1V1H124.791V27.7C124.791 30.5333 124.091 32.7167 122.691 34.25C121.291 35.75 119.258 36.5 116.591 36.5ZM140.966 1H148.416L154.116 36H148.616L147.616 29.05V29.15H141.366L140.366 36H135.266L140.966 1ZM146.966 24.4L144.516 7.1H144.416L142.016 24.4H146.966Z" fill="#ECE9E1"/>
</g>
<defs>
<clipPath id="clip0_13_2">
<rect width="155" height="37" fill="white"/>
</clipPath>
</defs>
</svg>
